<?xml version="1.0" encoding="UTF-8" standalone="no"?>
<!-- Created with Inkscape (http://www.inkscape.org/) -->

<svg
   width="512"
   height="32"
   viewBox="0 0 512 32"
   version="1.1"
   id="svg5"
   inkscape:version="1.1.2 (0a00cf5339, 2022-02-04)"
   sodipodi:docname="slider.svg"
   inkscape:export-filename="/home/greffmaster/Documents/lua/Love2d/Lustrous/states/gamestate/graphics/slider.png"
   inkscape:export-xdpi="96"
   inkscape:export-ydpi="96"
   xmlns:inkscape="http://www.inkscape.org/namespaces/inkscape"
   xmlns:sodipodi="http://sodipodi.sourceforge.net/DTD/sodipodi-0.dtd"
   xmlns="http://www.w3.org/2000/svg"
   xmlns:svg="http://www.w3.org/2000/svg">
  <sodipodi:namedview
     id="namedview7"
     pagecolor="#ffffff"
     bordercolor="#666666"
     borderopacity="1.0"
     inkscape:pageshadow="2"
     inkscape:pageopacity="0.0"
     inkscape:pagecheckerboard="true"
     inkscape:document-units="px"
     showgrid="false"
     width="512px"
     showguides="true"
     inkscape:guide-bbox="true"
     inkscape:zoom="13.833333"
     inkscape:cx="27.686748"
     inkscape:cy="11.783133"
     inkscape:window-width="1920"
     inkscape:window-height="1008"
     inkscape:window-x="0"
     inkscape:window-y="0"
     inkscape:window-maximized="1"
     inkscape:current-layer="layer2">
    <sodipodi:guide
       position="0,16"
       orientation="0,1"
       id="guide1452"
       inkscape:label=""
       inkscape:locked="false"
       inkscape:color="rgb(0,0,255)" />
    <sodipodi:guide
       position="16,32"
       orientation="-1,0"
       id="guide1454"
       inkscape:label=""
       inkscape:locked="false"
       inkscape:color="rgb(0,0,255)" />
    <sodipodi:guide
       position="48,32"
       orientation="-1,0"
       id="guide1458"
       inkscape:label=""
       inkscape:locked="false"
       inkscape:color="rgb(0,0,255)" />
  </sodipodi:namedview>
  <defs
     id="defs2" />
  <g
     inkscape:label="Layer 1"
     inkscape:groupmode="layer"
     id="layer1">
    <path
       id="rect2047"
       style="stroke-width:6.62406;stroke-linejoin:round;paint-order:markers stroke fill;fill:#ffffff"
       d="M -8.3496094 11 L -8.3496094 21 L 6.7167969 21 L 3.4941406 17.777344 A 2.50025 2.50025 0 0 1 3.4941406 14.242188 L 6.7363281 11 L -8.3496094 11 z M 10.271484 11 L 5.2617188 16.009766 L 10.251953 21 L 13.787109 21 L 8.796875 16.009766 L 13.806641 11 L 10.271484 11 z M 18.193359 11 L 23.203125 16.009766 L 18.212891 21 L 21.748047 21 L 26.738281 16.009766 L 21.728516 11 L 18.193359 11 z M 25.263672 11 L 28.505859 14.242188 A 2.50025 2.50025 0 0 1 28.505859 17.777344 L 25.283203 21 L 38.716797 21 L 35.494141 17.777344 A 2.50025 2.50025 0 0 1 35.494141 14.242188 L 38.736328 11 L 25.263672 11 z M 42.271484 11 L 37.261719 16.009766 L 42.251953 21 L 45.787109 21 L 40.796875 16.009766 L 45.806641 11 L 42.271484 11 z M 50.193359 11 L 55.203125 16.009766 L 50.212891 21 L 53.748047 21 L 58.738281 16.009766 L 53.728516 11 L 50.193359 11 z M 57.263672 11 L 60.505859 14.242188 A 2.50025 2.50025 0 0 1 60.505859 17.777344 L 57.283203 21 L 70.716797 21 L 67.494141 17.777344 A 2.50025 2.50025 0 0 1 67.494141 14.242188 L 70.736328 11 L 57.263672 11 z M 74.271484 11 L 69.261719 16.009766 L 74.251953 21 L 77.787109 21 L 72.796875 16.009766 L 77.806641 11 L 74.271484 11 z M 82.193359 11 L 87.203125 16.009766 L 82.212891 21 L 85.748047 21 L 90.738281 16.009766 L 85.728516 11 L 82.193359 11 z M 89.263672 11 L 92.505859 14.242188 A 2.50025 2.50025 0 0 1 92.505859 17.777344 L 89.283203 21 L 102.7168 21 L 99.494141 17.777344 A 2.50025 2.50025 0 0 1 99.494141 14.242188 L 102.73633 11 L 89.263672 11 z M 106.27148 11 L 101.26172 16.009766 L 106.25195 21 L 109.78711 21 L 104.79688 16.009766 L 109.80664 11 L 106.27148 11 z M 114.19336 11 L 119.20312 16.009766 L 114.21289 21 L 117.74805 21 L 122.73828 16.009766 L 117.72852 11 L 114.19336 11 z M 121.26367 11 L 124.50586 14.242188 A 2.50025 2.50025 0 0 1 124.50586 17.777344 L 121.2832 21 L 134.7168 21 L 131.49414 17.777344 A 2.50025 2.50025 0 0 1 131.49414 14.242188 L 134.73633 11 L 121.26367 11 z M 138.27148 11 L 133.26172 16.009766 L 138.25195 21 L 141.78711 21 L 136.79688 16.009766 L 141.80664 11 L 138.27148 11 z M 146.19336 11 L 151.20312 16.009766 L 146.21289 21 L 149.74805 21 L 154.73828 16.009766 L 149.72852 11 L 146.19336 11 z M 153.26367 11 L 156.50586 14.242188 A 2.50025 2.50025 0 0 1 156.50586 17.777344 L 153.2832 21 L 166.7168 21 L 163.49414 17.777344 A 2.50025 2.50025 0 0 1 163.49414 14.242188 L 166.73633 11 L 153.26367 11 z M 170.27148 11 L 165.26172 16.009766 L 170.25195 21 L 173.78711 21 L 168.79688 16.009766 L 173.80664 11 L 170.27148 11 z M 178.19336 11 L 183.20312 16.009766 L 178.21289 21 L 181.74805 21 L 186.73828 16.009766 L 181.72852 11 L 178.19336 11 z M 185.26367 11 L 188.50586 14.242188 A 2.50025 2.50025 0 0 1 188.50586 17.777344 L 185.2832 21 L 198.7168 21 L 195.49414 17.777344 A 2.50025 2.50025 0 0 1 195.49414 14.242188 L 198.73633 11 L 185.26367 11 z M 202.27148 11 L 197.26172 16.009766 L 202.25195 21 L 205.78711 21 L 200.79688 16.009766 L 205.80664 11 L 202.27148 11 z M 210.19336 11 L 215.20312 16.009766 L 210.21289 21 L 213.74805 21 L 218.73828 16.009766 L 213.72852 11 L 210.19336 11 z M 217.26367 11 L 220.50586 14.242188 A 2.50025 2.50025 0 0 1 220.50586 17.777344 L 217.2832 21 L 230.7168 21 L 227.49414 17.777344 A 2.50025 2.50025 0 0 1 227.49414 14.242188 L 230.73633 11 L 217.26367 11 z M 234.27148 11 L 229.26172 16.009766 L 234.25195 21 L 237.78711 21 L 232.79688 16.009766 L 237.80664 11 L 234.27148 11 z M 242.19336 11 L 247.20312 16.009766 L 242.21289 21 L 245.74805 21 L 250.73828 16.009766 L 245.72852 11 L 242.19336 11 z M 249.26367 11 L 252.50586 14.242188 A 2.50025 2.50025 0 0 1 252.50586 17.777344 L 249.2832 21 L 262.7168 21 L 259.49414 17.777344 A 2.50025 2.50025 0 0 1 259.49414 14.242188 L 262.73633 11 L 249.26367 11 z M 266.27148 11 L 261.26172 16.009766 L 266.25195 21 L 269.78711 21 L 264.79688 16.009766 L 269.80664 11 L 266.27148 11 z M 274.19336 11 L 279.20312 16.009766 L 274.21289 21 L 277.74805 21 L 282.73828 16.009766 L 277.72852 11 L 274.19336 11 z M 281.26367 11 L 284.50586 14.242188 A 2.50025 2.50025 0 0 1 284.50586 17.777344 L 281.2832 21 L 294.7168 21 L 291.49414 17.777344 A 2.50025 2.50025 0 0 1 291.49414 14.242188 L 294.73633 11 L 281.26367 11 z M 298.27148 11 L 293.26172 16.009766 L 298.25195 21 L 301.78711 21 L 296.79688 16.009766 L 301.80664 11 L 298.27148 11 z M 306.19336 11 L 311.20312 16.009766 L 306.21289 21 L 309.74805 21 L 314.73828 16.009766 L 309.72852 11 L 306.19336 11 z M 313.26367 11 L 316.50586 14.242188 A 2.50025 2.50025 0 0 1 316.50586 17.777344 L 313.2832 21 L 326.7168 21 L 323.49414 17.777344 A 2.50025 2.50025 0 0 1 323.49414 14.242188 L 326.73633 11 L 313.26367 11 z M 330.27148 11 L 325.26172 16.009766 L 330.25195 21 L 333.78711 21 L 328.79688 16.009766 L 333.80664 11 L 330.27148 11 z M 338.19336 11 L 343.20312 16.009766 L 338.21289 21 L 341.74805 21 L 346.73828 16.009766 L 341.72852 11 L 338.19336 11 z M 345.26367 11 L 348.50586 14.242188 A 2.50025 2.50025 0 0 1 348.50586 17.777344 L 345.2832 21 L 358.7168 21 L 355.49414 17.777344 A 2.50025 2.50025 0 0 1 355.49414 14.242188 L 358.73633 11 L 345.26367 11 z M 362.27148 11 L 357.26172 16.009766 L 362.25195 21 L 365.78711 21 L 360.79688 16.009766 L 365.80664 11 L 362.27148 11 z M 370.19336 11 L 375.20312 16.009766 L 370.21289 21 L 373.74805 21 L 378.73828 16.009766 L 373.72852 11 L 370.19336 11 z M 377.26367 11 L 380.50586 14.242188 A 2.50025 2.50025 0 0 1 380.50586 17.777344 L 377.2832 21 L 390.7168 21 L 387.49414 17.777344 A 2.50025 2.50025 0 0 1 387.49414 14.242188 L 390.73633 11 L 377.26367 11 z M 394.27148 11 L 389.26172 16.009766 L 394.25195 21 L 397.78711 21 L 392.79688 16.009766 L 397.80664 11 L 394.27148 11 z M 402.19336 11 L 407.20312 16.009766 L 402.21289 21 L 405.74805 21 L 410.73828 16.009766 L 405.72852 11 L 402.19336 11 z M 409.26367 11 L 412.50586 14.242188 A 2.50025 2.50025 0 0 1 412.50586 17.777344 L 409.2832 21 L 422.7168 21 L 419.49414 17.777344 A 2.50025 2.50025 0 0 1 419.49414 14.242188 L 422.73633 11 L 409.26367 11 z M 426.27148 11 L 421.26172 16.009766 L 426.25195 21 L 429.78711 21 L 424.79688 16.009766 L 429.80664 11 L 426.27148 11 z M 434.19336 11 L 439.20312 16.009766 L 434.21289 21 L 437.74805 21 L 442.73828 16.009766 L 437.72852 11 L 434.19336 11 z M 441.26367 11 L 444.50586 14.242188 A 2.50025 2.50025 0 0 1 444.50586 17.777344 L 441.2832 21 L 454.7168 21 L 451.49414 17.777344 A 2.50025 2.50025 0 0 1 451.49414 14.242188 L 454.73633 11 L 441.26367 11 z M 458.27148 11 L 453.26172 16.009766 L 458.25195 21 L 461.78711 21 L 456.79688 16.009766 L 461.80664 11 L 458.27148 11 z M 466.19336 11 L 471.20312 16.009766 L 466.21289 21 L 469.74805 21 L 474.73828 16.009766 L 469.72852 11 L 466.19336 11 z M 473.26367 11 L 476.50586 14.242188 A 2.50025 2.50025 0 0 1 476.50586 17.777344 L 473.2832 21 L 486.7168 21 L 483.49414 17.777344 A 2.50025 2.50025 0 0 1 483.49414 14.242188 L 486.73633 11 L 473.26367 11 z M 490.27148 11 L 485.26172 16.009766 L 490.25195 21 L 493.78711 21 L 488.79688 16.009766 L 493.80664 11 L 490.27148 11 z M 498.19336 11 L 503.20312 16.009766 L 498.21289 21 L 501.74805 21 L 506.73828 16.009766 L 501.72852 11 L 498.19336 11 z M 505.26367 11 L 508.50586 14.242188 A 2.50025 2.50025 0 0 1 508.50586 17.777344 L 505.2832 21 L 520.19336 21 L 520.19336 11 L 505.26367 11 z " />
    <g
       id="g2834"
       style="fill:#008000;stroke:none"
       transform="translate(-10.738131,43.562181)">
      <g
         id="path2437"
         style="fill:#008000;stroke:none" />
    </g>
  </g>
  <g
     inkscape:groupmode="layer"
     id="layer2"
     inkscape:label="Layer 2"
     style="display:inline">
    <path
       id="rect1222"
       style="stroke-linejoin:round;paint-order:markers stroke fill;fill:#ffffff"
       d="M 16,5.261868 26.738131,15.999999 15.999999,26.738131 5.2618677,16 Z" />
    <path
       id="path1456"
       style="stroke-linejoin:round;paint-order:markers stroke fill;fill:#ffffff"
       d="M 48,5.261868 58.738131,15.999999 47.999999,26.738131 37.261868,16 Z" />
    <path
       id="path1456-6"
       style="stroke-linejoin:round;paint-order:markers stroke fill;fill:#ffffff"
       d="M 80,5.261868 90.738131,15.999999 79.999999,26.738131 69.261868,16 Z" />
    <path
       id="path1575"
       style="stroke-linejoin:round;paint-order:markers stroke fill;fill:#ffffff"
       d="M 112,5.261868 122.73813,15.999999 112,26.738131 101.26187,16 Z" />
    <path
       id="path1577"
       style="stroke-linejoin:round;paint-order:markers stroke fill;fill:#ffffff"
       d="M 144,5.261868 154.73813,15.999999 144,26.738131 133.26187,16 Z" />
    <path
       id="path1456-5"
       style="stroke-linejoin:round;paint-order:markers stroke fill;fill:#ffffff"
       d="M 176,5.2618683 186.73813,15.999999 176,26.738131 165.26187,16 Z" />
    <path
       id="path1456-6-3"
       style="stroke-linejoin:round;paint-order:markers stroke fill;fill:#ffffff"
       d="M 208,5.2618683 218.73813,15.999999 208,26.738131 197.26187,16 Z" />
    <path
       id="path1575-5"
       style="stroke-linejoin:round;paint-order:markers stroke fill;fill:#ffffff"
       d="M 240,5.2618683 250.73813,15.999999 240,26.738131 229.26187,16 Z" />
    <path
       id="path1577-6"
       style="stroke-linejoin:round;paint-order:markers stroke fill;fill:#ffffff"
       d="M 272,5.2618683 282.73813,15.999999 272,26.738131 261.26187,16 Z" />
    <path
       id="path1456-9"
       style="stroke-linejoin:round;paint-order:markers stroke fill;fill:#ffffff"
       d="M 304,5.261868 314.73813,15.999999 304,26.738131 293.26187,16 Z" />
    <path
       id="path1456-6-1"
       style="stroke-linejoin:round;paint-order:markers stroke fill;fill:#ffffff"
       d="M 336,5.261868 346.73813,15.999999 336,26.738131 325.26187,16 Z" />
    <path
       id="path1575-2"
       style="stroke-linejoin:round;paint-order:markers stroke fill;fill:#ffffff"
       d="M 368,5.261868 378.73813,15.999999 368,26.738131 357.26187,16 Z" />
    <path
       id="path1577-7"
       style="stroke-linejoin:round;paint-order:markers stroke fill;fill:#ffffff"
       d="M 400,5.261868 410.73813,15.999999 400,26.738131 389.26187,16 Z" />
    <path
       id="path1456-5-0"
       style="stroke-linejoin:round;paint-order:markers stroke fill;fill:#ffffff"
       d="M 432,5.2618683 442.73813,15.999999 432,26.738131 421.26187,16 Z" />
    <path
       id="path1456-6-3-9"
       style="stroke-linejoin:round;paint-order:markers stroke fill;fill:#ffffff"
       d="M 464,5.2618683 474.73813,15.999999 464,26.738131 453.26187,16 Z" />
    <path
       id="path1575-5-3"
       style="stroke-linejoin:round;paint-order:markers stroke fill;fill:#ffffff"
       d="M 496,5.2618683 506.73813,15.999999 496,26.738131 485.26187,16 Z" />
  </g>
</svg>
