<?xml version="1.0" encoding="UTF-8" standalone="no"?>
<!-- Created with Inkscape (http://www.inkscape.org/) -->

<svg
   xmlns:dc="http://purl.org/dc/elements/1.1/"
   xmlns:cc="http://creativecommons.org/ns#"
   xmlns:rdf="http://www.w3.org/1999/02/22-rdf-syntax-ns#"
   xmlns:svg="http://www.w3.org/2000/svg"
   xmlns="http://www.w3.org/2000/svg"
   xmlns:sodipodi="http://sodipodi.sourceforge.net/DTD/sodipodi-0.dtd"
   xmlns:inkscape="http://www.inkscape.org/namespaces/inkscape"
   width="40mm"
   height="24.136999mm"
   viewBox="0 0 40 24.136999"
   version="1.1"
   id="svg8"
   inkscape:version="0.92.3 (2405546, 2018-03-11)"
   sodipodi:docname="head_normal.svg"
   inkscape:export-filename="/home/greffmaster/Obrazy/newcripsy.png"
   inkscape:export-xdpi="406"
   inkscape:export-ydpi="406">
  <defs
     id="defs2" />
  <sodipodi:namedview
     id="base"
     pagecolor="#ffffff"
     bordercolor="#666666"
     borderopacity="1.0"
     inkscape:pageopacity="0"
     inkscape:pageshadow="2"
     inkscape:zoom="1.7512203"
     inkscape:cx="82.398224"
     inkscape:cy="75.876757"
     inkscape:document-units="mm"
     inkscape:current-layer="layer2"
     showgrid="false"
     inkscape:window-width="1360"
     inkscape:window-height="717"
     inkscape:window-x="0"
     inkscape:window-y="0"
     inkscape:window-maximized="1"
     inkscape:pagecheckerboard="true" />
  <metadata
     id="metadata5">
    <rdf:RDF>
      <cc:Work
         rdf:about="">
        <dc:format>image/svg+xml</dc:format>
        <dc:type
           rdf:resource="http://purl.org/dc/dcmitype/StillImage" />
        <dc:title></dc:title>
      </cc:Work>
    </rdf:RDF>
  </metadata>
  <g
     inkscape:groupmode="layer"
     id="layer2"
     inkscape:label="Layer 2"
     transform="translate(0,-272.863)">
    <path
       style="fill:#ffffff;stroke:#000000;stroke-width:0.565;stroke-linecap:butt;stroke-linejoin:miter;stroke-miterlimit:4;stroke-dasharray:none;stroke-opacity:1"
       d="M 2.3993475,296.18677 H 38.182003 v -22.57195 h -27.99621 l -7.8739355,7.87394 z"
       id="path3757"
       inkscape:connector-curvature="0"
       sodipodi:nodetypes="cccccc" />
  </g>
  <g
     inkscape:label="Layer 1"
     inkscape:groupmode="layer"
     id="layer1"
     transform="translate(0,-272.863)">
    <path
       style="color:#000000;font-style:normal;font-variant:normal;font-weight:normal;font-stretch:normal;font-size:medium;line-height:normal;font-family:sans-serif;font-variant-ligatures:normal;font-variant-position:normal;font-variant-caps:normal;font-variant-numeric:normal;font-variant-alternates:normal;font-feature-settings:normal;text-indent:0;text-align:start;text-decoration:none;text-decoration-line:none;text-decoration-style:solid;text-decoration-color:#000000;letter-spacing:normal;word-spacing:normal;text-transform:none;writing-mode:lr-tb;direction:ltr;text-orientation:mixed;dominant-baseline:auto;baseline-shift:baseline;text-anchor:start;white-space:normal;shape-padding:0;clip-rule:nonzero;display:inline;overflow:visible;visibility:visible;opacity:1;isolation:auto;mix-blend-mode:normal;color-interpolation:sRGB;color-interpolation-filters:linearRGB;solid-color:#000000;solid-opacity:1;vector-effect:none;fill:#000000;fill-opacity:1;fill-rule:nonzero;stroke:#000000;stroke-width:0.51899999;stroke-linecap:round;stroke-linejoin:bevel;stroke-miterlimit:4;stroke-dasharray:none;stroke-dashoffset:0;stroke-opacity:1;color-rendering:auto;image-rendering:auto;shape-rendering:auto;text-rendering:auto;enable-background:accumulate"
       d="m 31.35781,278.64412 c -2.535476,1e-4 -4.59423,2.05908 -4.594034,4.59455 10e-5,2.53526 2.058767,4.59393 4.594034,4.59403 1.956731,-0.002 3.691559,-1.24791 4.331002,-3.09387 0.0019,-0.003 0.0048,-0.006 0.0067,-0.009 l -0.0016,-10e-4 c 0.0035,-0.0102 0.01103,-0.0177 0.01447,-0.0279 l -0.289906,-0.13023 c -0.476187,0.82711 -1.356575,1.33685 -2.310969,1.3379 -1.476531,-1.1e-4 -2.670006,-1.19359 -2.670122,-2.67012 -1.54e-4,-1.47672 1.1934,-2.67052 2.670122,-2.67064 0.953667,0.001 1.833245,0.51059 2.309418,1.33687 l 0.289907,-0.13022 c -0.0034,-0.0102 -0.01098,-0.0178 -0.01447,-0.0279 l 0.0016,-0.001 c -0.0019,-0.003 -0.0048,-0.006 -0.0067,-0.009 -0.639609,-1.84498 -2.373593,-3.09031 -4.329451,-3.09283 z"
       id="circle3830"
       inkscape:connector-curvature="0"
       sodipodi:nodetypes="cccccccccccccccccc" />
    <path
       style="fill:none;stroke:#000000;stroke-width:1;stroke-linecap:round;stroke-linejoin:bevel;stroke-miterlimit:4;stroke-dasharray:none;stroke-opacity:1"
       d="m 5.5926655,290.58752 3.430384,1.98052 H 31.139465 l 3.482267,-2.01046"
       id="path3847"
       inkscape:connector-curvature="0" />
    <path
       inkscape:connector-curvature="0"
       id="path4654"
       d="m 9.1359115,278.64412 c -2.535476,1e-4 -4.59423,2.05908 -4.594034,4.59455 10e-5,2.53526 2.058767,4.59393 4.594034,4.59403 1.9567305,-0.002 3.6915585,-1.24791 4.3310015,-3.09387 0.0019,-0.003 0.0048,-0.006 0.0067,-0.009 l -0.0016,-10e-4 c 0.0035,-0.0102 0.01103,-0.0177 0.01447,-0.0279 l -0.289906,-0.13023 c -0.476187,0.82711 -1.356575,1.33685 -2.310969,1.3379 -1.4765305,-1.1e-4 -2.6700055,-1.19359 -2.6701215,-2.67012 -1.54e-4,-1.47672 1.1934,-2.67052 2.6701215,-2.67064 0.953667,0.001 1.833245,0.51059 2.309418,1.33687 l 0.289907,-0.13022 c -0.0034,-0.0102 -0.01098,-0.0178 -0.01447,-0.0279 l 0.0016,-0.001 c -0.0019,-0.003 -0.0048,-0.006 -0.0067,-0.009 -0.639609,-1.84498 -2.373593,-3.09031 -4.3294505,-3.09283 z"
       style="color:#000000;font-style:normal;font-variant:normal;font-weight:normal;font-stretch:normal;font-size:medium;line-height:normal;font-family:sans-serif;font-variant-ligatures:normal;font-variant-position:normal;font-variant-caps:normal;font-variant-numeric:normal;font-variant-alternates:normal;font-feature-settings:normal;text-indent:0;text-align:start;text-decoration:none;text-decoration-line:none;text-decoration-style:solid;text-decoration-color:#000000;letter-spacing:normal;word-spacing:normal;text-transform:none;writing-mode:lr-tb;direction:ltr;text-orientation:mixed;dominant-baseline:auto;baseline-shift:baseline;text-anchor:start;white-space:normal;shape-padding:0;clip-rule:nonzero;display:inline;overflow:visible;visibility:visible;opacity:1;isolation:auto;mix-blend-mode:normal;color-interpolation:sRGB;color-interpolation-filters:linearRGB;solid-color:#000000;solid-opacity:1;vector-effect:none;fill:#000000;fill-opacity:1;fill-rule:nonzero;stroke:#000000;stroke-width:0.51899999;stroke-linecap:round;stroke-linejoin:bevel;stroke-miterlimit:4;stroke-dasharray:none;stroke-dashoffset:0;stroke-opacity:1;color-rendering:auto;image-rendering:auto;shape-rendering:auto;text-rendering:auto;enable-background:accumulate"
       sodipodi:nodetypes="cccccccccccccccccc" />
  </g>
</svg>
